<?xml version="1.0" encoding="UTF-8"?>
<!DOCTYPE svg PUBLIC "-//W3C//DTD SVG 1.0//EN" "http://www.w3.org/TR/2001/REC-SVG-20010904/DTD/svg10.dtd">
<!-- Creator: CorelDRAW -->
<svg xmlns="http://www.w3.org/2000/svg" xml:space="preserve" width="9.00103in" height="1.2986in" version="1.0" style="shape-rendering:geometricPrecision; text-rendering:geometricPrecision; image-rendering:optimizeQuality; fill-rule:evenodd; clip-rule:evenodd"
viewBox="0 0 8984.11 1296.16"
 xmlns:xlink="http://www.w3.org/1999/xlink"
 xmlns:xodm="http://www.corel.com/coreldraw/odm/2003">
 <defs>
  <style type="text/css">
   <![CDATA[
    .fil0 {fill:#591D2A}
   ]]>
  </style>
 </defs>
 <g id="Layer_x0020_1">
  <metadata id="CorelCorpID_0Corel-Layer"/>
  <path class="fil0" d="M7449.89 1246.15l660.91 -0.06c32.28,-29.92 307.65,-467.77 331.54,-517.99l474.41 -2.71 0 563 67.37 7.76 -2.68 -1093.02 -64.77 -0.22 0.08 457.75 -422.32 -0.02c19.77,-53.29 105.2,-171.1 140.35,-227.51 39.65,-63.62 117.27,-167.62 144.08,-232.57l-669.36 0c-59.84,115.64 -393.02,611.93 -495.89,781.78 -46.74,77.18 -132,188.16 -163.72,263.81zm-4041.76 -1049.48l0.23 1051.44 64.02 0 3.31 -935.57c14.24,8.53 665.31,816.9 714.59,896.68 12.36,20.01 9.07,21.09 21.07,38.86l561.45 3.42 0.01 -1061.34 -569.19 1.16 -2.72 915.85c-35.27,-31.87 -63.87,-74.24 -95.23,-114.74 -34.28,-44.29 -62.69,-78.01 -97.05,-121.12l-518.59 -656.69c-29.63,-31.66 -27.77,-24.16 -81.9,-17.94zm1449.82 149.26l-9.65 895.7c97.19,11.61 856.05,4 1016.42,3.87l-0.07 -558.81 -943.71 -4.18 0.04 -157.13 473.2 -2.6 -0.24 -67.6 -472.97 -0.33 0.01 -179.03 475.8 -2.6 -0.07 -64.85 -548.42 0.34 9.66 137.23zm-4857.94 -114.24c10.06,100.74 -0.17,894.93 0,1018.99 260.32,0 786.62,9.6 1016.39,-1.96l-0.24 -554.89 -943.42 -4.53 -2.64 -426.48 475.71 -0.62 -0.01 -57.77c-68.13,-18.8 -445.79,-6.47 -545.79,-6.47l0 33.73zm2167.32 1013.79l1017.1 5.35 -2.45 -559.03 -943.82 -2.05 0.01 -424.34 475.8 -2.6 -0.07 -64.85 -540.66 0.24 -5.91 1047.28zm4521.51 -974.83l101.42 2.57 0 967.06 569.25 0 2.53 -967.06 473.14 -0.62 -0.01 -57.77c-49.34,-13.61 -1056.58,-14.21 -1146.34,-3.26l0 59.07zm-1219.2 2.57l467.87 0 0.07 967.06 571.85 0 -0.07 -967.06 106.65 0 -0.07 -64.85 -1146.37 0 0.07 64.85zm-4383.65 972.93l1011.82 2.02 -2.91 -896.84 -64.63 3.76 0.02 334.21 -876.11 0 -0.9 -337.97 -57.26 0.02c-17.51,62.42 -18.37,791.82 -10.02,894.81zm2168.76 7.13l67.67 -3.46 -0.21 -1044.06 -67.4 -6.22 -0.06 1053.74zm93.45 -1187.96c0,-65.23 -33.54,-70.18 -96.78,-62.69 -25.66,38.3 -50.23,77.01 -3.3,111.37 44,32.22 100.08,8.84 100.08,-48.68z"/>
 </g>
</svg>
